<svg width="22" height="22" viewBox="0 0 22 22" fill="none" xmlns="http://www.w3.org/2000/svg">
<path d="M12.7188 11C13.2883 11 13.75 10.5383 13.75 9.96875C13.75 9.39921 13.2883 8.9375 12.7188 8.9375C12.1492 8.9375 11.6875 9.39921 11.6875 9.96875C11.6875 10.5383 12.1492 11 12.7188 11Z" fill="#9B9B9B"/>
<path d="M16.1562 11C16.7258 11 17.1875 10.5383 17.1875 9.96875C17.1875 9.39921 16.7258 8.9375 16.1562 8.9375C15.5867 8.9375 15.125 9.39921 15.125 9.96875C15.125 10.5383 15.5867 11 16.1562 11Z" fill="#9B9B9B"/>
<path d="M12.7188 14.4375C13.2883 14.4375 13.75 13.9758 13.75 13.4062C13.75 12.8367 13.2883 12.375 12.7188 12.375C12.1492 12.375 11.6875 12.8367 11.6875 13.4062C11.6875 13.9758 12.1492 14.4375 12.7188 14.4375Z" fill="#9B9B9B"/>
<path d="M16.1562 14.4375C16.7258 14.4375 17.1875 13.9758 17.1875 13.4062C17.1875 12.8367 16.7258 12.375 16.1562 12.375C15.5867 12.375 15.125 12.8367 15.125 13.4062C15.125 13.9758 15.5867 14.4375 16.1562 14.4375Z" fill="#9B9B9B"/>
<path d="M5.84375 14.4375C6.41329 14.4375 6.875 13.9758 6.875 13.4062C6.875 12.8367 6.41329 12.375 5.84375 12.375C5.27421 12.375 4.8125 12.8367 4.8125 13.4062C4.8125 13.9758 5.27421 14.4375 5.84375 14.4375Z" fill="#9B9B9B"/>
<path d="M9.28125 14.4375C9.85079 14.4375 10.3125 13.9758 10.3125 13.4062C10.3125 12.8367 9.85079 12.375 9.28125 12.375C8.71171 12.375 8.25 12.8367 8.25 13.4062C8.25 13.9758 8.71171 14.4375 9.28125 14.4375Z" fill="#9B9B9B"/>
<path d="M5.84375 17.875C6.41329 17.875 6.875 17.4133 6.875 16.8438C6.875 16.2742 6.41329 15.8125 5.84375 15.8125C5.27421 15.8125 4.8125 16.2742 4.8125 16.8438C4.8125 17.4133 5.27421 17.875 5.84375 17.875Z" fill="#9B9B9B"/>
<path d="M9.28125 17.875C9.85079 17.875 10.3125 17.4133 10.3125 16.8438C10.3125 16.2742 9.85079 15.8125 9.28125 15.8125C8.71171 15.8125 8.25 16.2742 8.25 16.8438C8.25 17.4133 8.71171 17.875 9.28125 17.875Z" fill="#9B9B9B"/>
<path d="M12.7188 17.875C13.2883 17.875 13.75 17.4133 13.75 16.8438C13.75 16.2742 13.2883 15.8125 12.7188 15.8125C12.1492 15.8125 11.6875 16.2742 11.6875 16.8438C11.6875 17.4133 12.1492 17.875 12.7188 17.875Z" fill="#9B9B9B"/>
<path fill-rule="evenodd" clip-rule="evenodd" d="M6.1875 2.0625C6.1875 1.6828 5.8797 1.375 5.5 1.375C5.1203 1.375 4.8125 1.6828 4.8125 2.0625V2.75H4.125C2.60622 2.75 1.375 3.98122 1.375 5.5V17.875C1.375 19.3938 2.60622 20.625 4.125 20.625H17.875C19.3938 20.625 20.625 19.3938 20.625 17.875V5.5C20.625 3.98122 19.3938 2.75 17.875 2.75H17.1875V2.0625C17.1875 1.6828 16.8797 1.375 16.5 1.375C16.1203 1.375 15.8125 1.6828 15.8125 2.0625V2.75H6.1875V2.0625ZM17.875 4.125C18.6344 4.125 19.25 4.74061 19.25 5.5V6.1875H2.75V5.5C2.75 4.74061 3.36561 4.125 4.125 4.125H17.875ZM2.75 7.5625V17.875C2.75 18.6344 3.36561 19.25 4.125 19.25H17.875C18.6344 19.25 19.25 18.6344 19.25 17.875V7.5625H2.75Z" fill="#9B9B9B"/>
</svg>
