<svg width="18" height="18" viewBox="0 0 18 18" fill="none" xmlns="http://www.w3.org/2000/svg">
<path d="M15.1875 6.75001C15.1881 5.70728 14.9252 4.6813 14.4232 3.76737C13.9212 2.85344 13.1963 2.08121 12.316 1.5224C11.4356 0.963583 10.4283 0.636316 9.38762 0.570993C8.34694 0.505669 7.30662 0.704409 6.36331 1.14875C5.41999 1.59309 4.60426 2.26863 3.99189 3.11261C3.37953 3.95659 2.99039 4.94163 2.86061 5.97626C2.73083 7.01089 2.86464 8.06153 3.24959 9.03061C3.63454 9.99968 4.25815 10.8558 5.0625 11.5193V16.875C5.06243 16.9709 5.0869 17.0653 5.13358 17.1491C5.18025 17.2329 5.24759 17.3034 5.32918 17.3538C5.41078 17.4043 5.50392 17.433 5.59975 17.4374C5.69559 17.4417 5.79093 17.4214 5.87672 17.3785L9 15.8203L12.124 17.382C12.2023 17.4194 12.2882 17.4384 12.375 17.4375C12.5242 17.4375 12.6673 17.3783 12.7727 17.2728C12.8782 17.1673 12.9375 17.0242 12.9375 16.875V11.5193C13.6413 10.9397 14.208 10.2114 14.597 9.38683C14.986 8.56224 15.1877 7.66176 15.1875 6.75001ZM3.9375 6.75001C3.9375 5.74874 4.23441 4.76996 4.79069 3.93744C5.34696 3.10491 6.13762 2.45604 7.06267 2.07287C7.98772 1.6897 9.00562 1.58945 9.98765 1.78479C10.9697 1.98012 11.8717 2.46228 12.5797 3.17028C13.2877 3.87829 13.7699 4.78034 13.9652 5.76237C14.1606 6.7444 14.0603 7.7623 13.6771 8.68735C13.294 9.6124 12.6451 10.4031 11.8126 10.9593C10.9801 11.5156 10.0013 11.8125 9 11.8125C7.6578 11.811 6.371 11.2772 5.42192 10.3281C4.47284 9.37902 3.93899 8.09221 3.9375 6.75001ZM11.8125 15.9652L9.25102 14.6848C9.17287 14.6457 9.08668 14.6253 8.9993 14.6253C8.91191 14.6253 8.82573 14.6457 8.74758 14.6848L6.1875 15.9652V12.2604C7.05823 12.7054 8.02213 12.9375 9 12.9375C9.97787 12.9375 10.9418 12.7054 11.8125 12.2604V15.9652ZM9 10.6875C9.77876 10.6875 10.54 10.4566 11.1876 10.0239C11.8351 9.59127 12.3398 8.97631 12.6378 8.25683C12.9358 7.53734 13.0138 6.74564 12.8618 5.98184C12.7099 5.21804 12.3349 4.51645 11.7842 3.96578C11.2336 3.41511 10.532 3.0401 9.76817 2.88817C9.00437 2.73624 8.21267 2.81422 7.49318 3.11224C6.7737 3.41026 6.15875 3.91494 5.72609 4.56246C5.29343 5.20997 5.0625 5.97125 5.0625 6.75001C5.06362 7.79396 5.47882 8.79483 6.217 9.53301C6.95518 10.2712 7.95605 10.6864 9 10.6875ZM9 3.93751C9.55626 3.93751 10.1 4.10246 10.5625 4.4115C11.0251 4.72055 11.3855 5.1598 11.5984 5.67372C11.8113 6.18763 11.867 6.75313 11.7585 7.2987C11.6499 7.84428 11.3821 8.34542 10.9887 8.73875C10.5954 9.13209 10.0943 9.39995 9.54869 9.50847C9.00312 9.61699 8.43762 9.5613 7.9237 9.34842C7.40979 9.13555 6.97053 8.77507 6.66149 8.31255C6.35245 7.85004 6.1875 7.30627 6.1875 6.75001C6.1875 6.00409 6.48382 5.28872 7.01126 4.76127C7.53871 4.23383 8.25408 3.93751 9 3.93751Z" fill="#E83A36"/>
</svg>
